<svg width="360" height="96" viewBox="0 0 360 96" fill="none" xmlns="http://www.w3.org/2000/svg" role="img" aria-label="Dragon Heart">
  <defs>
    <radialGradient id="dhw-ember" cx="50%" cy="62%" r="62%">
      <stop offset="0%" stop-color="#f8d9a0"></stop>
      <stop offset="42%" stop-color="#eaa94d"></stop>
      <stop offset="78%" stop-color="#df9132"></stop>
      <stop offset="100%" stop-color="#9a5b16"></stop>
    </radialGradient>
    <radialGradient id="dhw-heart" cx="50%" cy="64%" r="56%">
      <stop offset="0%" stop-color="#f8e9c8"></stop>
      <stop offset="60%" stop-color="#f3c277"></stop>
      <stop offset="100%" stop-color="#ba4632"></stop>
    </radialGradient>
  </defs>
  <g transform="translate(8,12) scale(0.75)">
    <circle cx="48" cy="48" r="43" stroke="#df9132" stroke-opacity="0.42" stroke-width="1.5"></circle>
    <path d="M48 16 C62 38, 70 50, 70 62 C70 76, 60 84, 48 84 C36 84, 26 76, 26 62 C26 50, 34 38, 48 16 Z" fill="url(#dhw-ember)"></path>
    <path d="M48 40 C56 53, 59 58, 59 65 C59 73, 54 78, 48 78 C42 78, 37 73, 37 65 C37 58, 40 53, 48 40 Z" fill="url(#dhw-heart)"></path>
  </g>
  <text x="90" y="52" font-family="Cormorant Garamond, Georgia, serif" font-size="40" font-weight="500" letter-spacing="0.5" fill="#f1e8d6">Dragon Heart</text>
  <text x="92" y="74" font-family="Hanken Grotesk, sans-serif" font-size="11" font-weight="600" letter-spacing="3.2" fill="#8a7c64">A PLACE TO BE KNOWN</text>
</svg>